<svg xmlns="http://www.w3.org/2000/svg" version="1.1" xmlns:xlink="http://www.w3.org/1999/xlink" xmlns:svgjs="http://svgjs.dev/svgjs" width="1500" height="1500" viewBox="0 0 1500 1500"><rect width="1500" height="1500" fill="#1f0f53"></rect><g transform="matrix(0.6666666666666666,0,0,0.6666666666666666,249.78425655976667,249.78425655976673)"><svg viewBox="0 0 343 343" data-background-color="#1f0f53" preserveAspectRatio="xMidYMid meet" height="1500" width="1500" xmlns="http://www.w3.org/2000/svg" xmlns:xlink="http://www.w3.org/1999/xlink"><g id="tight-bounds" transform="matrix(1,0,0,1,0.0740000000000407,0.07400000000001228)"><svg viewBox="0 0 342.85155851775386 342.85155851775386" height="342.85155851775386" width="342.85155851775386"><g><svg></svg></g><g><svg viewBox="0 0 342.85155851775386 342.85155851775386" height="342.85155851775386" width="342.85155851775386"><g><path d="M0 171.426c0-94.676 76.75-171.426 171.426-171.426 94.676 0 171.426 76.75 171.426 171.426 0 94.676-76.75 171.426-171.426 171.426-94.676 0-171.426-76.75-171.426-171.426zM171.426 339.32c92.725 0 167.894-75.169 167.894-167.894 0-92.725-75.169-167.894-167.894-167.894-92.725 0-167.894 75.169-167.894 167.894 0 92.725 75.169 167.894 167.894 167.894z" data-fill-palette-color="tertiary" fill="#ffdb99" stroke="transparent"></path><ellipse rx="164.56874808852186" ry="164.56874808852186" cx="171.42577925887693" cy="171.42577925887693" fill="#ffdb99" stroke="transparent" stroke-width="0" fill-opacity="1" data-fill-palette-color="tertiary"></ellipse></g><g transform="matrix(1,0,0,1,64.84655864529837,82.33273514565964)"><svg viewBox="0 0 213.1584412271571 178.18608822643458" height="178.18608822643458" width="213.1584412271571"><g><svg viewBox="0 0 213.1584412271571 178.18608822643458" height="178.18608822643458" width="213.1584412271571"><g><svg viewBox="0 0 213.1584412271571 178.18608822643458" height="178.18608822643458" width="213.1584412271571"><g transform="matrix(1,0,0,1,0,107.26247781629132)"><svg viewBox="0 0 213.1584412271571 70.92361041014325" height="70.92361041014325" width="213.1584412271571"><g id="textblocktransform"><svg viewBox="0 0 213.1584412271571 70.92361041014325" height="70.92361041014325" width="213.1584412271571" id="textblock"><g><svg viewBox="0 0 213.1584412271571 39.16555782660384" height="39.16555782660384" width="213.1584412271571"><g transform="matrix(1,0,0,1,0,0)"><svg width="213.1584412271571" viewBox="3.95 -35.45 248.43 45.65" height="39.16555782660384" data-palette-color="#1f0f53"><path d="M26.9 0L3.95 0 3.95-34.85 26.9-34.85 26.9-30.9 8.35-30.9 8.35-19.75 25.2-19.75 25.2-15.8 8.35-15.8 8.35-3.95 26.9-3.95 26.9 0ZM41 0.4L41 0.4Q38.5 0.4 36.5-0.35 34.5-1.1 33.07-2.35 31.65-3.6 30.8-5L30.8-5 33.75-7.5Q34.7-5.6 36.57-4.38 38.45-3.15 41.05-3.15L41.05-3.15Q43.4-3.15 44.8-4.15 46.2-5.15 46.2-6.85L46.2-6.85Q46.2-8.25 45.35-9.05 44.5-9.85 43.1-10.35 41.7-10.85 40.05-11.25L40.05-11.25Q38.65-11.6 37.22-12.1 35.8-12.6 34.65-13.35 33.5-14.1 32.8-15.3 32.1-16.5 32.1-18.25L32.1-18.25Q32.1-21.3 34.47-23.18 36.85-25.05 40.7-25.05L40.7-25.05Q43.5-25.05 45.82-23.88 48.15-22.7 49.45-20.35L49.45-20.35 46.75-18.35Q45.75-20.1 44.12-20.88 42.5-21.65 40.55-21.65L40.55-21.65Q38.6-21.65 37.3-20.85 36-20.05 36-18.65L36-18.65Q36-17.6 36.6-16.95 37.2-16.3 38.37-15.85 39.55-15.4 41.25-15L41.25-15Q42.8-14.65 44.4-14.15 46-13.65 47.35-12.85 48.7-12.05 49.52-10.73 50.35-9.4 50.35-7.3L50.35-7.3Q50.35-5 49.2-3.25 48.05-1.5 45.95-0.55 43.85 0.4 41 0.4ZM60.55 10.2L56.35 10.2 56.35-24.65 60.55-24.65 60.55-17.3 59.2-18.25Q59.85-20.4 61.12-21.93 62.4-23.45 64.25-24.25 66.09-25.05 68.45-25.05L68.45-25.05Q71.8-25.05 74.32-23.38 76.84-21.7 78.25-18.82 79.65-15.95 79.65-12.3L79.65-12.3Q79.65-8.45 78.15-5.58 76.65-2.7 74.09-1.15 71.55 0.4 68.45 0.4L68.45 0.4Q66.09 0.4 64.25-0.45 62.4-1.3 61.15-2.8 59.9-4.3 59.35-6.2L59.35-6.2 60.55-7.35 60.55 10.2ZM67.75-3.45L67.75-3.45Q70-3.45 71.72-4.58 73.45-5.7 74.42-7.7 75.4-9.7 75.4-12.3L75.4-12.3Q75.4-14.9 74.42-16.9 73.45-18.9 71.72-20.03 70-21.15 67.75-21.15L67.75-21.15Q65.5-21.15 63.8-20.03 62.1-18.9 61.15-16.9 60.2-14.9 60.2-12.3L60.2-12.3Q60.2-9.7 61.15-7.7 62.1-5.7 63.8-4.58 65.5-3.45 67.75-3.45ZM96.54 0.4L96.54 0.4Q93.09 0.4 90.37-1.23 87.64-2.85 86.09-5.75 84.54-8.65 84.54-12.35L84.54-12.35Q84.54-16.05 86.07-18.93 87.59-21.8 90.32-23.43 93.04-25.05 96.54-25.05L96.54-25.05Q100.04-25.05 102.72-23.43 105.39-21.8 106.94-18.93 108.49-16.05 108.49-12.35L108.49-12.35Q108.49-8.65 106.94-5.78 105.39-2.9 102.69-1.25 99.99 0.4 96.54 0.4ZM96.54-3.35L96.54-3.35Q98.89-3.35 100.62-4.48 102.34-5.6 103.29-7.63 104.24-9.65 104.24-12.35L104.24-12.35Q104.24-15.1 103.29-17.13 102.34-19.15 100.62-20.25 98.89-21.35 96.54-21.35L96.54-21.35Q94.14-21.35 92.39-20.23 90.64-19.1 89.69-17.1 88.74-15.1 88.74-12.35L88.74-12.35Q88.74-9.65 89.69-7.63 90.64-5.6 92.39-4.48 94.14-3.35 96.54-3.35ZM118.79 0L114.54 0 114.54-24.65 118.79-24.65 118.79-18.05 117.69-17.8Q118.04-20 119.36-21.63 120.69-23.25 122.47-24.15 124.24-25.05 125.94-25.05L125.94-25.05Q127.09-25.05 128.14-24.8 129.19-24.55 130.29-23.95L130.29-23.95 128.19-20.15Q127.59-20.45 126.77-20.65 125.94-20.85 125.19-20.85L125.19-20.85Q123.99-20.85 122.81-20.4 121.64-19.95 120.69-19 119.74-18.05 119.24-16.45L119.24-16.45Q119.04-15.75 118.91-14.63 118.79-13.5 118.79-11.55L118.79-11.55 118.79 0ZM143.09 0.4L143.09 0.4Q141.34 0.4 139.91-0.28 138.49-0.95 137.69-2.45 136.89-3.95 136.89-6.3L136.89-6.3 136.89-31.25 141.19-33.65 141.19-7.4Q141.19-5.35 141.84-4.23 142.49-3.1 144.19-3.1L144.19-3.1Q144.69-3.1 145.39-3.23 146.09-3.35 146.89-3.55L146.89-3.55 146.89-0.25Q145.94 0.1 144.96 0.25 143.99 0.4 143.09 0.4ZM146.89-21.35L131.79-21.35 131.79-24.65 146.89-24.65 146.89-21.35ZM163.19 0.55L163.19 0.55Q157.94 0.55 154.59-2.2 151.24-4.95 150.49-9.5L150.49-9.5 154.78-10.55Q155.34-7.05 157.66-5.23 159.99-3.4 163.34-3.4L163.34-3.4Q165.28-3.4 166.84-4.15 168.39-4.9 169.29-6.28 170.19-7.65 170.19-9.4L170.19-9.4Q170.19-11.25 169.19-12.45 168.19-13.65 166.41-14.55 164.64-15.45 162.28-16.35L162.28-16.35Q159.39-17.45 157.21-18.75 155.03-20.05 153.84-21.88 152.64-23.7 152.64-26.35L152.64-26.35Q152.64-29 153.94-31.05 155.24-33.1 157.59-34.27 159.94-35.45 163.03-35.45L163.03-35.45Q166.34-35.45 168.89-33.95 171.44-32.45 172.99-29.5L172.99-29.5 169.49-27.35Q168.34-29.4 166.69-30.48 165.03-31.55 162.89-31.55L162.89-31.55Q161.19-31.55 159.86-30.9 158.53-30.25 157.78-29.1 157.03-27.95 157.03-26.45L157.03-26.45Q157.03-24.85 157.94-23.73 158.84-22.6 160.53-21.75 162.24-20.9 164.64-20L164.64-20Q167.69-18.85 169.89-17.5 172.09-16.15 173.31-14.28 174.54-12.4 174.54-9.65L174.54-9.65Q174.54-6.7 173.09-4.4 171.64-2.1 169.09-0.78 166.53 0.55 163.19 0.55ZM185.78 10.15L181.18 10.15 185.88-1.2 176.28-24.65 180.93-24.65 188.13-5.45 195.38-24.65 199.98-24.65 185.78 10.15ZM209.03 0L204.78 0 204.78-24.65 209.03-24.65 209.03-19.4 208.03-19.05Q208.73-20.95 209.93-22.28 211.13-23.6 212.83-24.33 214.53-25.05 216.58-25.05L216.58-25.05Q220.63-25.05 222.93-22.68 225.23-20.3 225.23-15.65L225.23-15.65 225.23 0 220.98 0 220.98-14.1Q220.98-17.85 219.61-19.63 218.23-21.4 215.43-21.4L215.43-21.4Q213.38-21.4 211.96-20.45 210.53-19.5 209.78-17.48 209.03-15.45 209.03-12.3L209.03-12.3 209.03 0ZM242.38 0.4L242.38 0.4Q239.63 0.4 237.5-0.6 235.38-1.6 233.93-3.38 232.48-5.15 231.73-7.45 230.98-9.75 230.98-12.35L230.98-12.35Q230.98-14.9 231.73-17.2 232.48-19.5 233.93-21.28 235.38-23.05 237.5-24.05 239.63-25.05 242.38-25.05L242.38-25.05Q245.88-25.05 248.5-23.35 251.13-21.65 252.38-18.15L252.38-18.15 248.63-16.7Q247.93-18.8 246.38-20.1 244.83-21.4 242.38-21.4L242.38-21.4Q239.93-21.4 238.33-20.1 236.73-18.8 235.95-16.75 235.18-14.7 235.18-12.35L235.18-12.35Q235.18-10 235.95-7.93 236.73-5.85 238.33-4.58 239.93-3.3 242.38-3.3L242.38-3.3Q244.83-3.3 246.38-4.58 247.93-5.85 248.63-8L248.63-8 252.38-6.55Q251.13-3.05 248.5-1.33 245.88 0.4 242.38 0.4Z" opacity="1" transform="matrix(1,0,0,1,0,0)" fill="#1f0f53" class="wordmark-text-0" data-fill-palette-color="quaternary" id="text-0"></path></svg></g></svg></g><g transform="matrix(1,0,0,1,0,48.41160605607716)"><svg viewBox="0 0 213.1584412271571 22.51200435406609" height="22.51200435406609" width="213.1584412271571"><g transform="matrix(1,0,0,1,0,0)"><svg width="213.1584412271571" viewBox="1.07 -24.58 296.41 31.31" height="22.51200435406609" data-palette-color="#1f0f53"><path d="M14.91-17.57L14.21-17.29Q11.68-19.11 9.44-19.11L9.44-19.11Q8.04-19.11 7.2-18.36 6.36-17.62 6.36-16.61 6.36-15.61 7.27-14.91 8.18-14.21 10.14-13.29 12.1-12.38 13.32-11.64L13.32-11.64Q16.21-9.86 16.21-6.64L16.21-6.64Q16.21-4.72 15.16-3.13 14.11-1.54 12.2-0.61 10.28 0.33 7.38 0.33 4.49 0.33 1.07-1.12L1.07-1.12 1.78-5.51 2.29-5.84Q3.69-4.63 5.35-3.97 7.01-3.32 8.43-3.32 9.86-3.32 10.7-4.07 11.54-4.81 11.54-5.89 11.54-6.96 10.61-7.66 9.67-8.36 7.69-9.28 5.7-10.19 4.53-10.93L4.53-10.93Q1.68-12.66 1.68-15.89L1.68-15.89Q1.68-17.85 2.73-19.42 3.79-20.98 5.68-21.92 7.57-22.85 10.19-22.8 12.8-22.76 15.65-21.64L15.65-21.64 14.91-17.57ZM26.17-3.46Q27.24-3.46 28.46-4.02L28.46-4.02 28.83-3.64 28.36-0.93Q26.63 0 24.76 0.19L24.76 0.19Q20.04-0.28 20-4.39L20-4.39 20.18-7.34 20.18-13.36 17.99-13.36 17.8-13.55 18.03-16.12 20.09-16.12 20.09-18.83 24.34-20.19 24.67-19.91 24.53-16.12 28.74-16.12 28.88-15.89 28.69-13.36 24.48-13.36 24.3-5.51Q24.3-4.39 24.69-3.93 25.09-3.46 26.17-3.46ZM37.26-16.59Q40.37-16.59 41.91-15.37 43.45-14.16 43.45-12.01L43.45-12.01Q43.45-11.4 43.22-8.04L43.22-8.04Q43.22-8.04 43.08-4.21L43.08-4.21Q43.08-3.6 43.22-3.39 43.36-3.18 43.78-3.18 44.2-3.18 44.76-3.32L44.76-3.32 45.14-3.04 44.67-0.61Q43.55 0.09 42.14 0.28L42.14 0.28Q39.9 0.09 39.43-2.29L39.43-2.29 39.2-2.29Q37.42-0.42 35.6 0.33L35.6 0.33Q33.08 0.28 31.63-1.03 30.18-2.34 30.18-4.53L30.18-4.53Q30.18-7.94 33.78-8.64L33.78-8.64 39.15-9.63 39.15-11.07Q39.15-13.36 37-13.36 34.85-13.36 31.96-11.36L31.96-11.36 31.58-11.54 31.07-14.63Q34.15-16.59 37.26-16.59ZM39.15-7.34L35.42-6.5Q34.34-6.26 34.34-5.19L34.34-5.19Q34.34-3.08 36.16-3.08L36.16-3.08Q37.52-3.08 39.06-4.72L39.06-4.72 39.15-7.34ZM50.88-13.79L53.82-4.72 54.06-4.72 56.91-13.36 57.52-16.31 61.53-16.31 56.25-1.12Q55.13 2.2 53.17 3.95 51.21 5.7 47.61 6.73L47.61 6.73 47.28 6.68Q46.02 5.56 45.23 3.88L45.23 3.88 45.37 3.41Q49.43 2.71 51.86 0L51.86 0 45.88-16.17 50.37-16.4 50.88-13.79ZM87.23 0L82.37 0 81.81-2.94 81.2-5.05 76.81-5.14 72.93-5.05 72.32-3.18 71.72 0 67.04 0 74.66-22.52 80.31-22.52 87.23 0ZM80.22-8.69L77.56-18.08 77.23-18.08 74.15-8.69 77.18-8.64 80.22-8.69ZM97.56-12.71L97.56-12.71Q96.25-12.71 94.52-11.31L94.52-11.31 94.42-7.15 94.66 0 90.03 0 90.27-6.78 90.08-24.21 94.7-24.58 94.56-13.97 94.75-13.97Q96.67-15.75 98.91-16.5L98.91-16.5Q101.57-16.5 102.98-15.28 104.38-14.07 104.33-11.82L104.33-11.82 104.24-7.15 104.42 0 99.75 0 100.03-10.14Q100.13-12.71 97.56-12.71ZM120.87-7.57L111.62-7.52Q111.9-3.08 115.92-3.08L115.92-3.08Q118.21-3.08 120.64-4.39L120.64-4.39 121.01-4.11 120.4-0.7Q117.97 0.33 115.5 0.37L115.5 0.37Q111.62 0.37 109.47-1.87 107.32-4.11 107.32-8.06 107.32-12.01 109.49-14.28 111.66-16.54 115.03-16.54 118.39-16.54 120.05-14.84 121.71-13.13 121.71-10.14L121.71-10.14Q121.71-9.21 121.57-8.22L121.57-8.22 120.87-7.57ZM115.17-13.5L115.17-13.5Q113.81-13.5 112.9-12.62 111.99-11.73 111.71-10.09L111.71-10.09 117.6-10.28 117.69-10.65Q117.65-13.5 115.17-13.5ZM130.84-16.59Q133.95-16.59 135.49-15.37 137.04-14.16 137.04-12.01L137.04-12.01Q137.04-11.4 136.8-8.04L136.8-8.04Q136.8-8.04 136.66-4.21L136.66-4.21Q136.66-3.6 136.8-3.39 136.94-3.18 137.36-3.18 137.78-3.18 138.34-3.32L138.34-3.32 138.72-3.04 138.25-0.61Q137.13 0.09 135.73 0.28L135.73 0.28Q133.48 0.09 133.02-2.29L133.02-2.29 132.78-2.29Q131.01-0.42 129.19 0.33L129.19 0.33Q126.66 0.28 125.21-1.03 123.77-2.34 123.77-4.53L123.77-4.53Q123.77-7.94 127.36-8.64L127.36-8.64 132.74-9.63 132.74-11.07Q132.74-13.36 130.59-13.36 128.44-13.36 125.54-11.36L125.54-11.36 125.17-11.54 124.65-14.63Q127.74-16.59 130.84-16.59ZM132.74-7.34L129-6.5Q127.92-6.26 127.92-5.19L127.92-5.19Q127.92-3.08 129.75-3.08L129.75-3.08Q131.1-3.08 132.64-4.72L132.64-4.72 132.74-7.34ZM155.16-7.15L155.26-4.21Q155.3-3.6 155.44-3.39 155.58-3.18 156.01-3.18 156.43-3.18 156.99-3.32L156.99-3.32 157.31-3.04 156.89-0.61Q155.77 0.09 154.32 0.28L154.32 0.28Q152.08 0.09 151.47-2.15L151.47-2.15 151.19-2.15Q149.51-0.56 147.69 0.23L147.69 0.23Q144.23 0.23 142.36-1.94 140.49-4.11 140.49-8.13 140.49-12.15 142.66-14.35 144.84-16.54 148.67-16.54L148.67-16.54Q149.7-16.54 150.91-16.36L150.91-16.36 150.87-24.21 155.49-24.58 155.16-7.15ZM144.84-8.88L144.84-8.88Q144.84-3.41 148.16-3.41L148.16-3.41Q149.65-3.41 151.01-4.86L151.01-4.86 151.05-6.78 150.96-12.8Q149.6-13.41 148.39-13.41L148.39-13.41Q144.84-13.41 144.84-8.88ZM162.83-4.63Q164.41-3.36 164.41-1.59L164.41-1.59Q164.41 1.45 160.16 4.44L160.16 4.44 158.67 3.08 158.67 2.8Q160.58 1.21 160.54-0.65L160.54-0.65Q160.54-1.87 159.41-2.8L159.41-2.8 159.46-3.13Q161.05-4.11 162.83-4.63L162.83-4.63ZM189.41-17.2L188.94-17.1Q185.72-18.97 182.82-18.97 179.92-18.97 178.45-17.13 176.98-15.28 176.98-11.03L176.98-11.03Q176.98-5.65 179.5-4.21L179.5-4.21Q180.81-3.46 182.56-3.46 184.32-3.46 185.9-3.93L185.9-3.93 186-5.84 185.9-9.35 190.3-9.63 190.2-6.59 190.3-1.07Q186.09 0.33 182.54 0.33L182.54 0.33Q177.31 0.33 174.67-2.55 172.03-5.42 172.03-11.03 172.03-16.64 175.09-19.74 178.15-22.85 183.76-22.85L183.76-22.85Q187.45-22.8 190.39-21.45L190.39-21.45 189.41-17.2ZM200.04-16.59Q203.15-16.59 204.69-15.37 206.23-14.16 206.23-12.01L206.23-12.01Q206.23-11.4 206-8.04L206-8.04Q206-8.04 205.86-4.21L205.86-4.21Q205.86-3.6 206-3.39 206.14-3.18 206.56-3.18 206.98-3.18 207.54-3.32L207.54-3.32 207.91-3.04 207.44-0.61Q206.32 0.09 204.92 0.28L204.92 0.28Q202.68 0.09 202.21-2.29L202.21-2.29 201.98-2.29Q200.2-0.42 198.38 0.33L198.38 0.33Q195.86 0.28 194.41-1.03 192.96-2.34 192.96-4.53L192.96-4.53Q192.96-7.94 196.56-8.64L196.56-8.64 201.93-9.63 201.93-11.07Q201.93-13.36 199.78-13.36 197.63-13.36 194.73-11.36L194.73-11.36 194.36-11.54 193.85-14.63Q196.93-16.59 200.04-16.59ZM201.93-7.34L198.19-6.5Q197.12-6.26 197.12-5.19L197.12-5.19Q197.12-3.08 198.94-3.08L198.94-3.08Q200.29-3.08 201.84-4.72L201.84-4.72 201.93-7.34ZM230.57-10.14Q230.62-12.71 228.38-12.71L228.38-12.71Q226.79-12.71 225.06-11.31L225.06-11.31 225.01-7.15 225.15 0 220.53 0 220.81-10.14Q220.81-12.71 218.56-12.71L218.56-12.71Q216.97-12.71 215.2-11.31L215.2-11.31 215.2-7.15 215.43 0 210.81 0 211.04-6.73 210.85-15.98 215.25-16.36 215.25-13.97 215.48-13.97Q217.49-15.75 219.68-16.5L219.68-16.5Q223.66-16.5 224.73-13.88L224.73-13.88 224.87-13.88Q226.93-15.75 229.45-16.5L229.45-16.5Q232.11-16.5 233.49-15.28 234.87-14.07 234.82-11.82L234.82-11.82 234.73-7.15 234.92 0 230.29 0 230.57-10.14ZM251.41-7.57L242.16-7.52Q242.44-3.08 246.46-3.08L246.46-3.08Q248.75-3.08 251.18-4.39L251.18-4.39 251.55-4.11 250.94-0.7Q248.51 0.33 246.04 0.37L246.04 0.37Q242.16 0.37 240.01-1.87 237.86-4.11 237.86-8.06 237.86-12.01 240.03-14.28 242.21-16.54 245.57-16.54 248.93-16.54 250.59-14.84 252.25-13.13 252.25-10.14L252.25-10.14Q252.25-9.21 252.11-8.22L252.11-8.22 251.41-7.57ZM245.71-13.5L245.71-13.5Q244.36-13.5 243.44-12.62 242.53-11.73 242.25-10.09L242.25-10.09 248.14-10.28 248.23-10.65Q248.19-13.5 245.71-13.5ZM269.98-22.85Q274.91-22.85 277.48-19.95 280.05-17.06 280.05-11.5 280.05-5.93 277.27-2.78 274.49 0.37 269.56 0.37 264.63 0.37 262.06-2.59 259.49-5.56 259.49-11.12 259.49-16.68 262.27-19.77 265.05-22.85 269.98-22.85ZM269.79-19.02Q266.97-19.02 265.71-17.27 264.44-15.51 264.44-11.31 264.44-7.1 265.68-5.21 266.92-3.32 269.77-3.32 272.62-3.32 273.86-5.07 275.1-6.82 275.1-11.05 275.1-15.28 273.86-17.15 272.62-19.02 269.79-19.02ZM292.81 0L293.09-10.14Q293.09-12.71 290.89-12.71L290.89-12.71Q289.3-12.71 287.53-11.21L287.53-11.21 287.53-7.15 287.76 0 283.09 0 283.32-6.73 283.13-15.98 287.57-16.36 287.57-13.97 287.81-13.97Q289.81-15.75 292.01-16.5L292.01-16.5Q294.67-16.5 296.05-15.28 297.43-14.07 297.38-11.82L297.38-11.82 297.29-7.15 297.48 0 292.81 0Z" opacity="1" transform="matrix(1,0,0,1,0,0)" fill="#1f0f53" class="slogan-text-1" data-fill-palette-color="quaternary" id="text-1"></path></svg></g></svg></g></svg></g></svg></g><g transform="matrix(1,0,0,1,57.57178505146303,0)"><svg viewBox="0 0 98.01487112423105 98.01642958681799" height="98.01642958681799" width="98.01487112423105"><g><svg xmlns="http://www.w3.org/2000/svg" xmlns:xlink="http://www.w3.org/1999/xlink" version="1.1" x="0" y="0" viewBox="19.499985816758073 19.5 62.00001418324193 62.001000000000005" enable-background="new 0 0 100 100" xml:space="preserve" height="98.01642958681799" width="98.01487112423105" class="icon-icon-0" data-fill-palette-color="quaternary" id="icon-0"><g fill="#1f0f53" data-fill-palette-color="quaternary"><path d="M46.964 47.671L50.009 50.716 53.75 36.75 39.784 40.491 43.429 44.136 26.686 60.88A25.8 25.8 0 0 1 24.5 50.5C24.5 36.164 36.164 24.5 50.5 24.5 57.812 24.5 64.424 27.538 69.152 32.413L72.686 28.879C67.052 23.099 59.19 19.5 50.5 19.5 33.407 19.5 19.5 33.407 19.5 50.5A30.84 30.84 0 0 0 25.61 68.956L27.131 67.435 27.166 67.47z" fill="#1f0f53" data-fill-palette-color="quaternary"></path><path d="M75.89 32.746L72.292 36.344C72.311 36.373 72.327 36.404 72.346 36.433L54.036 54.742 50.284 50.99 46.543 64.956 60.509 61.215 57.571 58.277 74.737 41.111A25.8 25.8 0 0 1 76.5 50.5C76.5 64.837 64.837 76.5 50.5 76.5 43.493 76.5 37.13 73.709 32.449 69.187L28.915 72.721C34.501 78.149 42.114 81.501 50.5 81.501 67.594 81.501 81.5 67.595 81.5 50.501 81.5 43.899 79.42 37.779 75.89 32.746" fill="#1f0f53" data-fill-palette-color="quaternary"></path></g></svg></g></svg></g><g></g></svg></g></svg></g></svg></g></svg></g><defs></defs></svg><rect width="342.85155851775386" height="342.85155851775386" fill="none" stroke="none" visibility="hidden"></rect></g></svg></g></svg>